# xmcd CD database file
#
# Track frame offsets:
#	150
#	28425
#	46435
#	55320
#	74517
#	95620
#	114045
#	133782
#	155590
#	170420
#	191695
#	211070
#	231945
#	254930
#	270662
#	287927
#
# Disc length: 4196 seconds
#
# Revision: 0
# Processed by: cddbd v1.5PL3 Copyright (c) Steve Scherf et al.
# Submitted via: CDex 1.50
#
DISCID=fc106210
DTITLE=Blossom Dearie - My new celebrity is you
DYEAR=1990
DGENRE=Jazz
TTITLE0=My new celebrity is you
TTITLE1=There ought to be a moonlight saving time
TTITLE2=Smiling feet
TTITLE3=Pretty people
TTITLE4=The christmas card
TTITLE5=You'll never loose the love you give me
TTITLE6=Killing me softly with his song
TTITLE7=Who knows all the answers
TTITLE8=A Paris
TTITLE9=Spring in Manhattan
TTITLE10=Unless it's you
TTITLE11=Inside a silent tear
TTITLE12=Long daddy green
TTITLE13=Peel me a grape
TTITLE14=A song for you
TTITLE15=The pro musiqua antiqua
EXTD=YEAR: 1990
EXTT0=
EXTT1=
EXTT2=
EXTT3=
EXTT4=
EXTT5=
EXTT6=
EXTT7=
EXTT8=
EXTT9=
EXTT10=
EXTT11=
EXTT12=
EXTT13=
EXTT14=
EXTT15=
PLAYORDER=
